<?xml version="1.0" encoding="UTF-8"?>
<svg width="1027px" height="1026px" viewBox="0 0 1027 1026" version="1.1" xmlns="http://www.w3.org/2000/svg" xmlns:xlink="http://www.w3.org/1999/xlink">
    <!-- Generator: Sketch 52.6 (67491) - http://www.bohemiancoding.com/sketch -->
    <title>pencil</title>
    <desc>Created with Sketch.</desc>
    <g id="Page-1" stroke="none" stroke-width="1" fill="none" fill-rule="evenodd">
        <g id="pencil" fill="#FFFFFF" fill-rule="nonzero">
            <path d="M966,51 C948.666667,34.3333333 930.5,21.6666667 911.5,13 C892.5,4.33333333 872.666667,0 852,0 C806,0 764.666667,18.3333333 728,55 C716,66.3333333 505,277.333333 95,688 C91,692 88,696.666667 86,702 C83.3333333,713.333333 55.3333333,807 2,983 C-1.33333333,995.666667 1.66666667,1006.66667 11,1016 C11.6666667,1017.33333 12.6666667,1018.33333 14,1019 C15.3333333,1019.66667 16.5,1020.33333 17.5,1021 C18.5,1021.66667 19.6666667,1022.33333 21,1023 C22.3333333,1023.66667 23.6666667,1024.16667 25,1024.5 L29,1025.5 L33,1026 C37,1026 40.3333333,1025.33333 43,1024 C183.666667,978 275.666667,948.666667 319,936 C321.666667,935.333333 324.166667,934.333333 326.5,933 C328.833333,931.666667 331,930 333,928 C409,852.666667 530,732.833333 696,568.5 C862,404.166667 953,313.666667 969,297 C1008.33333,256.333333 1027.66667,214.333333 1027,171 C1025.66667,128.333333 1005.33333,88.3333333 966,51 Z M718,157 C751.333333,165 782.666667,183.666667 812,213 C824,225 834.166667,238.666667 842.5,254 C850.833333,269.333333 856.166667,280.833333 858.5,288.5 C860.833333,296.166667 862.666667,303.333333 864,310 C774,399.333333 597.666667,574 335,834 C321.666667,803.333333 303.333333,776 280,752 C252,724 220.666667,703 186,689 L187,688 L188,687 L189,686 L189,685 L190,685 L191,684 L192,683 L192,682 L193,682 L194,681 L195,680 L195,679 L196,679 L197,678 L198,677 L198,676 L199,676 L200,675 L201,674 L202,673 L202,672 L203,672 L204,671 L205,670 L205,669 L206,669 L207,668 L208,667 L209,666 L209,665 L210,665 L211,664 L212,663 L213,662 L213,661 L214,660 L215,660 L216,659 L217,658 L218,657 L218,656 L219,655 L220,655 L221,654 L222,653 L223,652 L223,651 L224,650 L225,650 L226,649 L227,648 L228,647 L229,646 L229,645 L230,644 L231,644 L232,643 L233,642 L234,641 L235,640 L236,639 L236,638 L237,638 L238,637 L239,636 L240,635 L241,634 L242,633 L243,632 L243,631 L244,630 L245,630 L246,629 L247,628 L248,627 L249,626 L250,625 L251,624 L252,623 L252,622 L253,621 L254,621 L255,620 L256,619 L257,618 L258,617 L259,616 L260,615 L261,614 L262,613 L263,612 L263,611 L264,610 L265,609 L266,609 L267,608 L268,607 L269,606 L270,605 L271,604 L272,603 L273,602 L274,601 L275,600 L276,599 L277,598 L277,597 L278,596 L279,595 L280,594 L281,594 L282,593 L283,592 L284,591 L285,590 L286,589 L287,588 L288,587 L289,586 L290,585 L291,584 L292,583 L293,582 L294,581 L295,580 L296,579 L297,578 L298,577 L299,576 L300,575 L300,574 L301,573 L302,572 L303,571 L304,570 L305,569 L306,568 L307,567 L308,566 L309,565 L310,565 L311,564 L312,563 L313,562 L314,561 L315,560 L316,559 L317,558 L318,557 L319,556 L320,555 L321,554 L322,553 L323,552 L324,551 L325,550 L326,549 L327,548 L328,547 L329,546 L330,545 L331,544 L332,543 L333,542 L334,541 L336,539 L337,538 L338,537 L339,536 L340,535 L341,534 L342,533 L343,532 L344,531 L345,530 L346,529 L347,528 L348,527 L349,525 L350,524 L351,523 L352,522 L353,521 L355,520 L356,519 L357,518 L358,517 L359,516 L360,515 L361,514 L362,513 L363,512 L364,511 L365,510 L366,508 L367,507 L368,506 L370,505 L371,504 L372,503 L373,502 L374,501 L375,500 L376,499 L377,498 L378,497 L379,495 L380,494 L381,493 L383,492 L384,491 L385,490 L386,489 L387,488 L388,487 L389,486 L390,484 L391,483 L392,482 L394,481 L395,480 L396,479 L397,478 L398,477 L399,476 L400,475 L401,473 L402,472 L404,471 L405,470 L406,469 L407,468 L408,467 L409,466 L410,464 L411,463 L412,462 L414,461 L415,460 L416,459 L417,458 L418,457 L419,455 L420,454 L421,453 L423,452 L424,451 L425,450 L426,449 L427,448 L428,446 L429,445 L431,444 L432,443 L433,442 L434,441 L435,440 L436,438 L437,437 L439,436 L440,435 L441,434 L442,433 L443,432 L444,430 L445,429 L447,428 L448,427 L449,426 L450,425 L451,424 L452,422 L453,421 L455,420 L456,419 L457,418 L458,417 L459,416 L460,414 L461,413 L463,412 L464,411 L465,410 L466,409 L467,407 L468,406 L470,405 L471,404 L472,403 L473,402 L474,400 L475,399 L477,398 L478,397 L479,396 L480,395 L481,393 L482,392 L484,391 L485,390 L486,389 L487,388 L488,386 L489,385 L491,384 L492,383 L493,382 L494,381 L495,379 L496,378 L498,377 L499,376 L500,375 L501,374 L502,372 L503,371 L505,370 L506,369 L507,368 L508,367 L509,365 L511,364 L512,363 L513,362 L514,361 L515,359 L516,358 L518,357 L519,356 L520,355 L521,354 L522,352 L524,351 L525,350 L526,349 L527,348 L528,346 L529,345 L531,344 L532,343 L533,342 L534,341 L535,339 L537,338 L538,337 L539,336 L540,335 L541,333 L542,332 L544,331 L545,330 L546,329 L547,328 L548,326 L550,325 L551,324 L552,323 L553,322 L554,320 L555,319 L557,318 L558,317 L559,316 L560,315 L561,313 L563,312 L564,311 L565,310 L566,309 L567,307 L568,306 L570,305 L571,304 L572,303 L573,302 L574,300 L576,299 L577,298 L578,297 L579,296 L580,294 L581,293 L583,292 L584,291 L585,290 L586,289 L587,287 L589,286 L590,285 L591,284 L592,283 L593,281 L594,280 L596,279 L597,278 L598,277 L599,276 L600,274 L601,273 L603,272 L604,271 L605,270 L606,269 L607,267 L609,266 L610,265 L611,264 L612,263 L613,261 L614,260 L616,259 L617,258 L618,257 L619,256 L620,254 L621,253 L623,252 L624,251 L625,250 L626,249 L627,248 L628,246 L629,245 L631,244 L632,243 L633,242 L634,241 L635,239 L636,238 L638,237 L639,236 L640,235 L641,234 L642,233 L643,231 L644,230 L646,229 L647,228 L648,227 L649,226 L650,225 L651,223 L652,222 L654,221 L655,220 L656,219 L657,218 L658,217 L659,215 L660,214 L661,213 L663,212 L664,211 L665,210 L666,209 L667,208 L668,206 L669,205 L670,204 L672,203 L673,202 L674,201 L675,200 L676,199 L677,198 L678,196 L679,195 L680,194 L681,193 L683,192 L684,191 L685,190 L686,189 L687,188 L688,187 L689,186 L690,185 L691,183 L692,182 L693,181 L694,180 L696,179 L697,178 L698,177 L699,176 L700,175 L701,174 L702,173 L703,172 L704,171 L705,170 L706,169 L707,168 L708,167 L709,166 L710,165 L711,164 L712,162 L713,161 L714,160 L715,159 L716,158 L718,157 Z M142,743 C174.666667,751.666667 205.333333,770.333333 234,799 C256.666667,821.666667 272.666667,848.333333 282,879 C268.666667,883.666667 236.833333,894.333333 186.5,911 C136.166667,927.666667 100,939.666667 78,947 C84,927 95,892.166667 111,842.5 C127,792.833333 137.333333,759.666667 142,743 Z M922,251 C922,251.666667 921.666667,252.333333 921,253 L919,255 L916,258 C902.666667,223.333333 883.333333,193 858,167 C831.333333,140.333333 801.666667,120 769,106 L772,103 L774,101 C777.333333,97.6666667 781.5,94 786.5,90 C791.5,86 800.5,81 813.5,75 C826.5,69 839.333333,66 852,66 C864,66 875.833333,68.6666667 887.5,74 C899.166667,79.3333333 910.333333,87.3333333 921,98 C934.333333,110.666667 944.5,123.333333 951.5,136 C958.5,148.666667 962,161 962,173 C962,197.666667 948.666667,223.666667 922,251 Z" id="Shape"></path>
        </g>
    </g>
</svg>