<?xml version="1.0" encoding="UTF-8"?>
<svg width="1024px" height="1024px" viewBox="0 0 1024 1024" version="1.1" xmlns="http://www.w3.org/2000/svg" xmlns:xlink="http://www.w3.org/1999/xlink">
    <!-- Generator: Sketch 52.6 (67491) - http://www.bohemiancoding.com/sketch -->
    <title>link</title>
    <desc>Created with Sketch.</desc>
    <g id="Page-1" stroke="none" stroke-width="1" fill="none" fill-rule="evenodd">
        <g id="link" fill="#FFFFFF" fill-rule="nonzero">
            <path d="M295.5,732.5 C301.833333,738.833333 309.333333,742 318,742 C322.666667,742 326.833333,741.166667 330.5,739.5 C334.166667,737.833333 337.666667,735.333333 341,732 L729,342 C735,335.333333 738,327.666667 738,319 C738,310.333333 734.833333,302.833333 728.5,296.5 C722.166667,290.166667 714.666667,287 706,287 C697.333333,287 689.666667,290.333333 683,297 L296,687 C289.333333,693.666667 286,701.333333 286,710 C286,718.666667 289.166667,726.166667 295.5,732.5 Z M476,664 C481.333333,688 481,711 475,733 C469,755 457,775 439,793 L310,918 C282,946 248,960 208,960 C168,960 134,946 106,918 C78,890 64,856 64,816 C64,776 78,742.333333 106,715 L232,584 C260,556 294,542 334,542 C345.333333,542 358,544 372,548 L422,498 C394,484.666667 364.666667,478 334,478 C276.666667,478 227.666667,498.333333 187,539 L61,669 C20.3333333,709.666667 0,758.666667 0,816 C0,873.333333 20.3333333,922.333333 61,963 C101.666667,1003.66667 150.666667,1024 208,1024 C265.333333,1024 314.333333,1003.66667 355,963 L484,838 C514.666667,807.333333 533.666667,771.666667 541,731 C548.333333,690.333333 543.666667,651.333333 527,614 L476,664 Z M963,61 C943,41 920.333333,25.8333333 895,15.5 C869.666667,5.16666667 843.333333,0 816,0 C758.666667,0.666666667 709.666667,21 669,61 L540,186 C508,217.333333 488.5,255.166667 481.5,299.5 C474.5,343.833333 480.666667,385.333333 500,424 L550,374 C542,350 541.166667,325 547.5,299 C553.833333,273 566.333333,250.333333 585,231 L714,106 C720.666667,99.3333333 728,93.3333333 736,88 C744,82.6666667 752.333333,78.1666667 761,74.5 C769.666667,70.8333333 778.666667,68.1666667 788,66.5 C797.333333,64.8333333 806.666667,64 816,64 C856,64 890,78 918,106 C946,134 960,168 960,208 C960,248 946,281.666667 918,309 L789,439 C775.666667,452.333333 760.166667,462.666667 742.5,470 C724.833333,477.333333 706.333333,481 687,481 C671.666667,481 662.333333,480.666667 659,480 L608,531 C616.666667,534.333333 625.5,537 634.5,539 C643.5,541 652.166667,542.5 660.5,543.5 C668.833333,544.5 677.666667,545 687,545 C714.333333,545 740.666667,539.833333 766,529.5 C791.333333,519.166667 814,504 834,484 L963,355 C1008.33333,309.666667 1028.33333,254.666667 1023,190 C1018.33333,139.333333 998.333333,96.3333333 963,61 Z" id="Shape"></path>
        </g>
    </g>
</svg>